<svg width="302" height="136" viewBox="0 0 302 136" fill="none" xmlns="http://www.w3.org/2000/svg">
<g clip-path="url(#clip0_360_1461)">
<rect width="302" height="136" fill="#1F1F1F"/>
<mask id="mask0_360_1461" style="mask-type:alpha" maskUnits="userSpaceOnUse" x="0" y="0" width="302" height="174">
<rect width="302" height="174" fill="#D9D9D9"/>
</mask>
<g mask="url(#mask0_360_1461)">
<path d="M111.264 28.929L71.2987 28.9225L68.2344 21.4731L108.218 21.5231L111.264 28.929Z" fill="#2C2C2A"/>
<path d="M111.264 43.911L71.2987 43.9046L68.2344 36.4551L108.218 36.5051L111.264 43.911Z" fill="#2C2C2A"/>
<path d="M111.264 13.9469L71.2987 13.9405L68.2344 6.49103L108.218 6.54103L111.264 13.9469Z" fill="#2C2C2A"/>
<path d="M154.546 21.4379L114.58 21.4315L111.516 13.982L151.499 14.032L154.546 21.4379Z" fill="#2C2C2A"/>
<path d="M154.546 51.402L114.58 51.3956L111.516 43.9461L151.499 43.9961L154.546 51.402Z" fill="#2C2C2A"/>
<path d="M221.132 66.384L181.166 66.3776L178.102 58.9281L218.085 58.9781L221.132 66.384Z" fill="#2C2C2A"/>
<path d="M154.546 36.42L114.58 36.4136L111.516 28.9641L151.499 29.0141L154.546 36.42Z" fill="#2C2C2A"/>
<path d="M166.474 28.914L157.71 28.9641L154.797 21.4922L165.641 21.4731H174.773L178.102 28.914H166.474Z" fill="#2C2C2A"/>
<path d="M166.474 43.896L157.71 43.9461L154.797 36.4742L165.641 36.4551H174.773L178.102 43.896H166.474Z" fill="#2C2C2A"/>
<path d="M166.474 58.8781L157.71 58.9282L154.797 51.4563L165.641 51.4371H174.773L178.102 58.8781H166.474Z" fill="#2C2C2A"/>
<path d="M28.2603 6.50207L-11.915 6.52122L-15 -0.91973L25.1753 -0.938875L65.1589 -1L68.2259 6.3974L28.2603 6.50207Z" fill="#2C2C2A"/>
<path d="M28.2603 21.4841L-11.915 21.5032L-15 14.0623L25.1753 14.0432L65.1589 13.982L68.2259 21.3794L28.2603 21.4841Z" fill="#2C2C2A"/>
<path d="M28.2603 36.4662L-11.915 36.4853L-15 29.0444L25.1753 29.0252L65.1589 28.9641L68.2259 36.3615L28.2603 36.4662Z" fill="#2C2C2A"/>
<path d="M111.264 107.874L71.2987 107.881L68.2344 115.33L108.218 115.28L111.264 107.874Z" fill="#2C2C2A"/>
<path d="M111.264 92.8922L71.2987 92.8986L68.2344 100.348L108.218 100.298L111.264 92.8922Z" fill="#2C2C2A"/>
<path d="M111.264 122.856L71.2987 122.863L68.2344 130.312L108.218 130.262L111.264 122.856Z" fill="#2C2C2A"/>
<path d="M154.546 115.365L114.58 115.372L111.516 122.821L151.499 122.771L154.546 115.365Z" fill="#2C2C2A"/>
<path d="M178.101 77.8399L218.067 77.8335L221.131 70.384L181.147 70.434L178.101 77.8399Z" fill="#2C2C2A"/>
<path d="M154.546 85.4012L114.58 85.4076L111.516 92.8571L151.499 92.8071L154.546 85.4012Z" fill="#2C2C2A"/>
<path d="M154.546 100.383L114.58 100.39L111.516 107.839L151.499 107.789L154.546 100.383Z" fill="#2C2C2A"/>
<path d="M166.474 107.889L157.71 107.839L154.797 115.311L165.641 115.33H174.773L178.102 107.889H166.474Z" fill="#2C2C2A"/>
<path d="M166.474 92.9072L157.71 92.8571L154.797 100.329L165.641 100.348H174.773L178.102 92.9072H166.474Z" fill="#2C2C2A"/>
<path d="M166.474 77.9251L157.71 77.875L154.797 85.3469L165.641 85.3661H174.773L178.102 77.9251H166.474Z" fill="#2C2C2A"/>
<path d="M28.2603 130.301L-11.915 130.282L-15 137.723L25.1753 137.742L65.1589 137.803L68.2259 130.406L28.2603 130.301Z" fill="#2C2C2A"/>
<path d="M28.2603 115.319L-11.915 115.3L-15 122.741L25.1753 122.76L65.1589 122.821L68.2259 115.424L28.2603 115.319Z" fill="#2C2C2A"/>
<path d="M28.2603 100.337L-11.915 100.318L-15 107.759L25.1753 107.778L65.1589 107.839L68.2259 100.442L28.2603 100.337Z" fill="#2C2C2A"/>
</g>
</g>
<defs>
<clipPath id="clip0_360_1461">
<rect width="302" height="136" fill="white"/>
</clipPath>
</defs>
</svg>
